<svg viewBox="0 0 24 24" shape-rendering="crispEdges" xmlns="http://www.w3.org/2000/svg" style="width:100%;height:100%;display:block"><rect x="9" y="0" width="1" height="1" fill="#FFD08A"/><rect x="14" y="0" width="1" height="1" fill="#FFD08A"/><rect x="6" y="1" width="1" height="1" fill="#FFD08A"/><rect x="12" y="1" width="1" height="1" fill="#FFD08A"/><rect x="17" y="1" width="1" height="1" fill="#FFD08A"/><rect x="9" y="2" width="4" height="1" fill="#D9603F"/><rect x="7" y="3" width="8" height="1" fill="#D9603F"/><rect x="6" y="4" width="10" height="1" fill="#D9603F"/><rect x="5" y="5" width="4" height="1" fill="#D9603F"/><rect x="9" y="5" width="4" height="1" fill="#FFD08A"/><rect x="13" y="5" width="4" height="1" fill="#D9603F"/><rect x="5" y="6" width="3" height="1" fill="#D9603F"/><rect x="8" y="6" width="1" height="1" fill="#FFD08A"/><rect x="13" y="6" width="1" height="1" fill="#FFD08A"/><rect x="14" y="6" width="3" height="1" fill="#D9603F"/><rect x="4" y="7" width="4" height="1" fill="#D9603F"/><rect x="14" y="7" width="4" height="1" fill="#D9603F"/><rect x="4" y="8" width="3" height="1" fill="#D9603F"/><rect x="7" y="8" width="2" height="1" fill="#FFD08A"/><rect x="13" y="8" width="2" height="1" fill="#FFD08A"/><rect x="15" y="8" width="3" height="1" fill="#D9603F"/><rect x="3" y="9" width="4" height="1" fill="#D9603F"/><rect x="15" y="9" width="4" height="1" fill="#D9603F"/><rect x="3" y="10" width="3" height="1" fill="#D9603F"/><rect x="8" y="10" width="6" height="1" fill="#D9603F"/><rect x="16" y="10" width="3" height="1" fill="#D9603F"/><rect x="2" y="11" width="4" height="1" fill="#D9603F"/><rect x="8" y="11" width="6" height="1" fill="#D9603F"/><rect x="16" y="11" width="4" height="1" fill="#D9603F"/><rect x="2" y="12" width="15" height="1" fill="#D9603F"/><rect x="18" y="12" width="2" height="1" fill="#D9603F"/><rect x="1" y="13" width="21" height="1" fill="#D9603F"/><rect x="1" y="14" width="3" height="1" fill="#8A2F18"/><rect x="4" y="14" width="15" height="1" fill="#D9603F"/><rect x="19" y="14" width="3" height="1" fill="#8A2F18"/><rect x="0" y="15" width="6" height="1" fill="#8A2F18"/><rect x="6" y="15" width="11" height="1" fill="#D9603F"/><rect x="17" y="15" width="6" height="1" fill="#8A2F18"/><rect x="0" y="16" width="9" height="1" fill="#8A2F18"/><rect x="9" y="16" width="5" height="1" fill="#D9603F"/><rect x="14" y="16" width="10" height="1" fill="#8A2F18"/><rect x="0" y="17" width="24" height="1" fill="#8A2F18"/><rect x="0" y="18" width="1" height="1" fill="#5A1A0C" opacity=".55"/><rect x="1" y="18" width="1" height="1" fill="#8A2F18"/><rect x="2" y="18" width="2" height="1" fill="#5A1A0C" opacity=".55"/><rect x="4" y="18" width="3" height="1" fill="#8A2F18"/><rect x="7" y="18" width="3" height="1" fill="#5A1A0C" opacity=".55"/><rect x="10" y="18" width="3" height="1" fill="#8A2F18"/><rect x="13" y="18" width="3" height="1" fill="#5A1A0C" opacity=".55"/><rect x="16" y="18" width="3" height="1" fill="#8A2F18"/><rect x="19" y="18" width="3" height="1" fill="#5A1A0C" opacity=".55"/><rect x="22" y="18" width="1" height="1" fill="#8A2F18"/><rect x="23" y="18" width="1" height="1" fill="#5A1A0C" opacity=".55"/><rect x="0" y="19" width="24" height="1" fill="#5A1A0C" opacity=".55"/><rect x="0" y="20" width="24" height="1" fill="#5A1A0C" opacity=".55"/><rect x="0" y="21" width="24" height="1" fill="#5A1A0C" opacity=".55"/><rect x="0" y="22" width="24" height="1" fill="#5A1A0C" opacity=".55"/><rect x="0" y="23" width="24" height="1" fill="#5A1A0C" opacity=".55"/></svg>